<?xml version="1.0" standalone="no"?>
<!DOCTYPE svg PUBLIC "-//W3C//DTD SVG 20010904//EN"
 "http://www.w3.org/TR/2001/REC-SVG-20010904/DTD/svg10.dtd">
<svg version="1.0" xmlns="http://www.w3.org/2000/svg"
 width="1000.000000pt" height="1000.000000pt" viewBox="0 0 1000.000000 1000.000000"
 preserveAspectRatio="xMidYMid meet">

<g transform="translate(0.000000,1000.000000) scale(0.100000,-0.100000)"
fill="#000000" stroke="none">
<path d="M4440 8615 l-595 -595 -847 0 -848 0 0 -848 0 -847 -570 -570 -570
-570 570 -570 570 -570 0 -813 0 -812 812 0 813 0 595 -595 595 -595 595 595
595 595 842 0 843 0 0 843 0 842 575 575 575 575 -575 575 -575 575 0 808 0
807 -807 0 -808 0 -595 595 -595 595 -595 -595z m1445 -1805 l110 -110 -740
-740 -740 -740 385 -385 385 -385 732 732 733 733 0 -675 0 -675 -522 -522
-523 -523 -740 0 -740 0 -493 493 -492 492 0 680 0 680 527 527 528 528 740 0
740 0 110 -110z"/>
</g>
</svg>
