<?xml version="1.0" standalone="no"?>
<!DOCTYPE svg PUBLIC "-//W3C//DTD SVG 20010904//EN"
 "http://www.w3.org/TR/2001/REC-SVG-20010904/DTD/svg10.dtd">
<svg version="1.0" xmlns="http://www.w3.org/2000/svg"
 width="1920.000000pt" height="1080.000000pt" viewBox="0 0 1920.000000 1080.000000"
 preserveAspectRatio="xMidYMid meet">

<g transform="translate(0.000000,1080.000000) scale(0.100000,-0.100000)"
fill="#000000" stroke="none">
<path d="M7053 7847 c-1327 -1327 -2413 -2419 -2413 -2427 0 -8 1089 -1104
2420 -2435 l2420 -2420 1266 1265 c1776 1775 3564 3577 3564 3591 0 16 -2792
2809 -2808 2809 -27 0 -283 -250 -1506 -1471 l-1270 -1267 29 -39 c34 -45 852
-871 876 -884 22 -11 259 212 849 802 663 661 1008 999 1022 999 13 0 816
-803 891 -892 l49 -57 -51 -58 c-28 -32 -694 -701 -1480 -1487 l-1429 -1429
-124 117 c-67 64 -738 732 -1491 1484 l-1367 1367 1462 1465 c805 805 1683
1686 1952 1957 l489 494 -68 72 c-142 150 -850 857 -859 857 -5 0 -1095 -1086
-2423 -2413z"/>
</g>
</svg>
